<?xml version="1.0" encoding="utf-8"?>
<!-- Generator: Adobe Illustrator 25.0.1, SVG Export Plug-In . SVG Version: 6.00 Build 0)  -->
<svg version="1.1" id="Layer_1" xmlns="http://www.w3.org/2000/svg" xmlns:xlink="http://www.w3.org/1999/xlink" x="0px" y="0px"
	 viewBox="0 0 100 100" style="enable-background:new 0 0 100 100;" xml:space="preserve">
<style type="text/css">
	.st0{fill:#3E3E3E;}
	.st1{fill:none;stroke:#3E3E3E;stroke-width:3;stroke-miterlimit:10;}
</style>
<g>
	<path class="st0" d="M73.9,53.1c-2.6,0-4.7,2.1-4.7,4.7s2.1,4.7,4.7,4.7s4.7-2.1,4.7-4.7S76.4,53.1,73.9,53.1z M73.9,59.4
		c-0.9,0-1.6-0.7-1.6-1.6s0.7-1.6,1.6-1.6s1.6,0.7,1.6,1.6S74.7,59.4,73.9,59.4z"/>
	<path class="st0" d="M50,3.1h-8.9c-12.2,0-23,7.7-27,19.2c-1.1,2.3-1.6,4.7-1.6,7.2v65.8c0,0.9,0.7,1.6,1.6,1.6h71.9
		c0.9,0,1.6-0.7,1.6-1.6V40.6C87.5,19.9,70.7,3.1,50,3.1z M84.4,93.8H65.6v0c-1.2,0.1-2.3,0.1-3.5,0.1c-0.3,0-0.6,0-0.9-0.1H50v0
		c-1.4,0.2-2.9,0-4.2,0c0,0-0.1,0-0.1,0H34.4v-0.1c-0.3,0-0.6,0.1-0.9,0.1c-0.8,0.1-1.8,0.1-2.6-0.1H15.6V80.4c-0.1-1.4,0-2.9,0-4.2
		c0-0.1,0-0.2,0-0.2V39.2l0.2,0c-0.1-1-0.2-2-0.2-3c0-0.2,0-0.4,0-0.6v-3.9c0-2.8,0.5-5.6,1.4-8.2c0.1-0.2,0.2-0.3,0.3-0.5
		c0.7-2.7,2.4-5.1,4.1-7.3c0.6-0.8,1.3-1.4,2-2.1c-0.1,0-0.2,0.1-0.3,0.1C27.8,9,34.3,6.2,41.1,6.2H50c19,0,34.4,15.4,34.4,34.4
		V93.8z"/>
	<line class="st1" x1="15.6" y1="39.2" x2="85.5" y2="39.2"/>
	<line class="st1" x1="15.6" y1="71.5" x2="85.5" y2="71.5"/>
	<line class="st1" x1="38.4" y1="37.7" x2="38.4" y2="6.2"/>
	<line class="st1" x1="62.1" y1="37.7" x2="62.1" y2="6.2"/>
	<line class="st1" x1="62.1" y1="94.8" x2="62.1" y2="71.5"/>
	<line class="st1" x1="38.4" y1="95.4" x2="38.4" y2="72.2"/>
</g>
</svg>
