<svg height='100px' width='100px'  fill="#3e3e3e" xmlns="http://www.w3.org/2000/svg" xmlns:xlink="http://www.w3.org/1999/xlink" version="1.1" x="0px" y="0px" viewBox="0 0 100 100" enable-background="new 0 0 100 100" xml:space="preserve"><path d="M5,81.165l7.918-0.001l9.56-9.561l-5.498-5.498l4.859-10.176l4.225,4.225L73.419,6.439L95,5l-1.439,21.582L39.846,73.938  l4.225,4.224l-10.176,4.86l-5.499-5.498l-9.56,9.56L18.835,95H5V81.165z M15.937,85.88L26.31,75.507l-1.816-1.815L14.12,84.063  l-6.221,0.002V92.1h8.037L15.937,85.88L15.937,85.88z M39.12,77.313L22.688,60.88l-2.209,4.626l14.016,14.016L39.12,77.313z   M90.748,25.197l1.139-17.083L74.805,9.252L28.118,62.208l9.673,9.674L90.748,25.197z M10.072,85.855H14v4.267h-3.928V85.855z   M40.229,61.333l-2.051-2.051L75.77,21.691l2.051,2.05L40.229,61.333z"></path></svg>