<svg height='100px' width='100px'  fill="#3e3e3e" xmlns="http://www.w3.org/2000/svg" viewBox="0 0 64 64" x="0px" y="0px"><title>Artboard 17</title><g data-name="Layer 18"><path d="M17,40.14a4.2,4.2,0,1,0,5.94,0A4.18,4.18,0,0,0,17,40.14Zm4.53,4.52a2.2,2.2,0,0,1-3.11,0,2.16,2.16,0,0,1-.65-1.55,2.2,2.2,0,1,1,4.4,0A2.15,2.15,0,0,1,21.5,44.66ZM58.83,22.6,53,16.76a4.59,4.59,0,0,0,.62-4.44,4.85,4.85,0,0,0-3.7-3.07,4.77,4.77,0,0,0-4.4,1.51L23.73,35a9,9,0,1,0-4.66,17.11c.3,0,.59,0,.88,0A9,9,0,0,0,28.1,39.33L42.65,26.22l3.46,3.45a3,3,0,1,0,4.24-4.24l-2.86-2.86a.53.53,0,0,1-.15-.37.5.5,0,0,1,.17-.36.51.51,0,0,1,.69,0l5.68,5.69a3,3,0,0,0,4.25,0l.7-.71a3,3,0,0,0,0-4.24Zm-1.41,2.83-.71.71a1,1,0,0,1-1.41,0l-5.69-5.69a2.5,2.5,0,0,0-4.27,1.7A2.54,2.54,0,0,0,46.07,24l2.87,2.86a1,1,0,1,1-1.42,1.42L43.4,24.13a1,1,0,0,0-1.38,0L26.19,38.36A1,1,0,0,0,26,39.6,7,7,0,0,1,14.09,47a6.92,6.92,0,0,1,.07-7.79,7,7,0,0,1,5.78-3.06,6.93,6.93,0,0,1,3.51,1,1,1,0,0,0,1.24-.2L47,12.1a2.79,2.79,0,0,1,2.57-.88,2.92,2.92,0,0,1,2.19,1.85,2.69,2.69,0,0,1-.83,3,1,1,0,0,0-.31.72,1,1,0,0,0,.29.72L57.42,24A1,1,0,0,1,57.42,25.43Z"></path></g></svg>