<svg height='100px' width='100px'  fill="#3e3e3e" xmlns="http://www.w3.org/2000/svg" xmlns:xlink="http://www.w3.org/1999/xlink" version="1.2" baseProfile="tiny" x="0px" y="0px" viewBox="0 0 100 100" xml:space="preserve"><path d="M92.5,90H70c0-6.848-3.462-12.898-8.725-16.505l18.332-35.742l2.225,1.141c0.365,0.188,0.755,0.276,1.139,0.276  c0.908,0,1.783-0.497,2.227-1.36l9.127-17.796c0.63-1.229,0.145-2.735-1.084-3.365l-8.897-4.563  c-1.229-0.631-2.735-0.144-3.365,1.084L71.85,30.966c-0.303,0.59-0.358,1.275-0.155,1.907c0.203,0.631,0.649,1.155,1.239,1.458  l2.225,1.141L56.821,71.223C54.689,70.446,52.398,70,50,70c-11.028,0-20,8.972-20,20H7.5C6.119,90,5,91.119,5,92.5S6.119,95,7.5,95  h25h35h25c1.381,0,2.5-1.119,2.5-2.5S93.881,90,92.5,90z M84.286,17.676l4.448,2.282l-6.846,13.347l-4.449-2.282L84.286,17.676z   M45,90c0-2.757,2.243-5,5-5s5,2.243,5,5H45z M60,90c0-5.514-4.486-10-10-10s-10,4.486-10,10h-5c0-8.271,6.729-15,15-15  s15,6.729,15,15H60z"></path></svg>