<svg height='100px' width='100px'  fill="#3e3e3e" xmlns="http://www.w3.org/2000/svg" viewBox="0 0 64 64" x="0px" y="0px"><title>Artboard 10</title><g data-name="Layer 11"><path d="M32,2H26.33A18.35,18.35,0,0,0,9.05,14.28,10.78,10.78,0,0,0,8,18.92V61a1,1,0,0,0,1,1H55a1,1,0,0,0,1-1V26A24,24,0,0,0,32,2ZM18.92,10H20V24.06l-10-1V20.33a16.21,16.21,0,0,1,.89-5.28A8.93,8.93,0,0,1,18.92,10ZM25,10a14.81,14.81,0,0,1,5,.88V25l-8-.78V10ZM40,25v1l-8-.78V11.74A15,15,0,0,1,40,25ZM10,48.9V25.1L39.9,28H40V46h-.1ZM10,60V50.91l10-1V60ZM22,49.75,30,49V60H22ZM32,60V48.78L40,48V60Zm22,0H42V25A17,17,0,0,0,31.42,9.27l-.08,0A16.93,16.93,0,0,0,25,8H18.92a10.92,10.92,0,0,0-4.17.83A16.28,16.28,0,0,1,26.33,4H32A22,22,0,0,1,54,26ZM36,34a3,3,0,1,0,3,3A3,3,0,0,0,36,34Zm0,4a1,1,0,1,1,1-1A1,1,0,0,1,36,38Z"></path></g></svg>