<svg height='100px' width='100px'  fill="#3e3e3e" xmlns="http://www.w3.org/2000/svg" xmlns:xlink="http://www.w3.org/1999/xlink" version="1.1" x="0px" y="0px" viewBox="0 0 100 100" style="enable-background:new 0 0 100 100;" xml:space="preserve"><path d="M50,10c-16.2,0-29.3,13.1-29.3,29.3v44.6c0,3.3,2.7,6.1,6.1,6.1h46.5c3.3,0,6.1-2.7,6.1-6.1V39.3C79.3,23.1,66.2,10,50,10z   M75.3,83c0,1.4-1.2,2.6-2.6,2.6H34.3v-6.8c0-0.8,0.7-1.5,1.5-1.5h39.6V83z M75.3,73.5H45.5v-6.8c0-0.8,0.7-1.5,1.5-1.5h28.3V73.5z   M75.3,61.4H56.6v-6.8c0-0.8,0.7-1.5,1.5-1.5h17.2V61.4z M75.3,49.3h-8.8v-6.8c0-0.8,0.7-1.5,1.5-1.5h7.3V49.3z"></path></svg>